<svg width="40" height="40" viewBox="0 0 40 40" fill="none" xmlns="http://www.w3.org/2000/svg">
<path d="M4.5 34V12.5L20 6L35.5 12.5V34H28V20H12V34H4.5Z" fill="#816BFE" fill-opacity="0.36"/>
<mask id="mask0_406_27495" style="mask-type:alpha" maskUnits="userSpaceOnUse" x="0" y="0" width="40" height="40">
<rect width="40" height="40" fill="#D9D9D9"/>
</mask>
<g mask="url(#mask0_406_27495)">
<path d="M6.11141 32.2221H10.5556V18.8888H29.4447V32.2221H33.8889V13.5279L20.0002 7.97208L6.11141 13.5279V32.2221ZM3.3335 35V11.6667L20.0002 5L36.6668 11.6667V35H26.6668V21.6667H13.3335V35H3.3335ZM15.2781 35V32.2221H18.0556V35H15.2781ZM18.6114 30V27.2221H21.3889V30H18.6114ZM21.9447 35V32.2221H24.7222V35H21.9447Z" fill="#2A2D2F"/>
</g>
</svg>
